<?xml version="1.0" encoding="utf-8"?>
<svg viewBox="0 0 333.6168 357.5283" xmlns="http://www.w3.org/2000/svg">
  <path opacity="1" d="M 271.077 145.225 C 271.077 177.272 261.368 206.876 245.012 230.894 L 327.508 319.355 C 335.653 328.083 335.653 342.256 327.508 350.983 C 319.363 359.71 306.135 359.71 297.99 350.983 L 215.494 262.522 C 193.078 280.116 165.448 290.449 135.539 290.449 C 60.667 290.449 0 225.447 0 145.225 C 0 65.002 60.667 0 135.539 0 C 210.411 0 271.077 65.002 271.077 145.225 Z M 135.539 245.764 C 207.772 245.764 252.918 161.981 216.802 94.955 C 200.04 63.848 169.063 44.684 135.539 44.684 C 63.305 44.684 18.159 128.468 54.276 195.495 C 71.037 226.602 102.015 245.764 135.539 245.764 Z" style="fill: rgb(143, 147, 155);"/>
</svg>